<svg width="50" height="50" viewBox="0 0 50 50" fill="none" xmlns="http://www.w3.org/2000/svg">
<rect width="50" height="50" rx="5" fill="black"/>
<path d="M19.8613 17.4473C19.9834 17.7321 20.02 18.0332 19.9712 18.3506C19.9224 18.6598 19.7922 18.9243 19.5806 19.144L9.10693 30.8262H19.8369V34H5.53027C5.22103 34 4.93213 33.9146 4.66357 33.7437C4.40316 33.5646 4.20785 33.3327 4.07764 33.0479C3.93929 32.763 3.89453 32.466 3.94336 32.1567C4.00033 31.8475 4.13053 31.5789 4.33398 31.3511L14.832 19.6689H4.07764V16.4951H18.4087C18.7179 16.4951 19.0028 16.5846 19.2632 16.7637C19.5317 16.9346 19.7311 17.1624 19.8613 17.4473ZM45.0811 16.4951L42.1514 32.9014C42.0863 33.2269 41.9398 33.5076 41.7119 33.7437C41.484 33.9797 41.2074 34.1302 40.8818 34.1953C40.5482 34.2523 40.2308 34.2157 39.9297 34.0854C39.6367 33.9552 39.4048 33.7518 39.2339 33.4751L33.4233 23.9292L27.6006 33.4751C27.4622 33.7111 27.271 33.8942 27.0269 34.0244C26.7909 34.1546 26.5345 34.2197 26.2578 34.2197C25.8753 34.2197 25.5376 34.0977 25.2446 33.8535C24.9517 33.6094 24.7726 33.292 24.7075 32.9014L21.7534 16.4951H24.9761L27.0757 28.0552L32.0806 20.0718C32.2189 19.8358 32.4061 19.6527 32.6421 19.5225C32.8862 19.3923 33.1466 19.3271 33.4233 19.3271C33.7 19.3271 33.9564 19.3923 34.1924 19.5225C34.4284 19.6527 34.6237 19.8358 34.7783 20.0718L39.7588 28.0552L41.8584 16.4951H45.0811Z" fill="white"/>
</svg>
